<svg width="1440" height="1479" viewBox="0 0 1440 1479" fill="none" xmlns="http://www.w3.org/2000/svg">
<path d="M388.5 394.25C382.875 394.25 375 402.898 375 408.383C375 410.844 376.828 412.25 379.992 412.25C383.438 412.25 385.688 410.492 388.5 410.492C391.242 410.492 393.492 412.25 396.938 412.25C400.102 412.25 402 410.844 402 408.383C402 402.898 394.055 394.25 388.5 394.25ZM378.094 393.406C377.391 390.945 375.141 389.398 373.102 389.891C371.062 390.383 369.938 392.703 370.711 395.164C371.414 397.625 373.664 399.172 375.703 398.68C377.742 398.188 378.867 395.867 378.094 393.406ZM384.07 391.93C386.25 391.367 387.305 388.414 386.531 385.391C385.688 382.297 383.227 380.328 381.047 380.891C378.867 381.453 377.812 384.406 378.586 387.43C379.43 390.523 381.891 392.492 384.07 391.93ZM403.828 389.891C401.789 389.398 399.539 390.945 398.836 393.406C398.062 395.867 399.188 398.188 401.227 398.68C403.266 399.172 405.516 397.625 406.219 395.164C406.992 392.703 405.867 390.383 403.828 389.891ZM392.859 391.93C395.039 392.492 397.5 390.523 398.344 387.43C399.117 384.406 398.062 381.453 395.883 380.891C393.703 380.328 391.242 382.297 390.398 385.391C389.625 388.414 390.68 391.367 392.859 391.93Z" fill="#EFE7EF"/>
<path d="M838.5 182.25C832.875 182.25 825 190.898 825 196.383C825 198.844 826.828 200.25 829.992 200.25C833.438 200.25 835.688 198.492 838.5 198.492C841.242 198.492 843.492 200.25 846.938 200.25C850.102 200.25 852 198.844 852 196.383C852 190.898 844.055 182.25 838.5 182.25ZM828.094 181.406C827.391 178.945 825.141 177.398 823.102 177.891C821.062 178.383 819.938 180.703 820.711 183.164C821.414 185.625 823.664 187.172 825.703 186.68C827.742 186.188 828.867 183.867 828.094 181.406ZM834.07 179.93C836.25 179.367 837.305 176.414 836.531 173.391C835.688 170.297 833.227 168.328 831.047 168.891C828.867 169.453 827.812 172.406 828.586 175.43C829.43 178.523 831.891 180.492 834.07 179.93ZM853.828 177.891C851.789 177.398 849.539 178.945 848.836 181.406C848.062 183.867 849.188 186.188 851.227 186.68C853.266 187.172 855.516 185.625 856.219 183.164C856.992 180.703 855.867 178.383 853.828 177.891ZM842.859 179.93C845.039 180.492 847.5 178.523 848.344 175.43C849.117 172.406 848.062 169.453 845.883 168.891C843.703 168.328 841.242 170.297 840.398 173.391C839.625 176.414 840.68 179.367 842.859 179.93Z" fill="#EFE7EF"/>
<path d="M412.5 818.25C406.875 818.25 399 826.898 399 832.383C399 834.844 400.828 836.25 403.992 836.25C407.438 836.25 409.688 834.492 412.5 834.492C415.242 834.492 417.492 836.25 420.938 836.25C424.102 836.25 426 834.844 426 832.383C426 826.898 418.055 818.25 412.5 818.25ZM402.094 817.406C401.391 814.945 399.141 813.398 397.102 813.891C395.062 814.383 393.938 816.703 394.711 819.164C395.414 821.625 397.664 823.172 399.703 822.68C401.742 822.188 402.867 819.867 402.094 817.406ZM408.07 815.93C410.25 815.367 411.305 812.414 410.531 809.391C409.688 806.297 407.227 804.328 405.047 804.891C402.867 805.453 401.812 808.406 402.586 811.43C403.43 814.523 405.891 816.492 408.07 815.93ZM427.828 813.891C425.789 813.398 423.539 814.945 422.836 817.406C422.062 819.867 423.188 822.188 425.227 822.68C427.266 823.172 429.516 821.625 430.219 819.164C430.992 816.703 429.867 814.383 427.828 813.891ZM416.859 815.93C419.039 816.492 421.5 814.523 422.344 811.43C423.117 808.406 422.062 805.453 419.883 804.891C417.703 804.328 415.242 806.297 414.398 809.391C413.625 812.414 414.68 815.367 416.859 815.93Z" fill="#EFE7EF"/>
<path d="M118.5 556.25C112.875 556.25 105 564.898 105 570.383C105 572.844 106.828 574.25 109.992 574.25C113.438 574.25 115.688 572.492 118.5 572.492C121.242 572.492 123.492 574.25 126.938 574.25C130.102 574.25 132 572.844 132 570.383C132 564.898 124.055 556.25 118.5 556.25ZM108.094 555.406C107.391 552.945 105.141 551.398 103.102 551.891C101.062 552.383 99.9375 554.703 100.711 557.164C101.414 559.625 103.664 561.172 105.703 560.68C107.742 560.188 108.867 557.867 108.094 555.406ZM114.07 553.93C116.25 553.367 117.305 550.414 116.531 547.391C115.688 544.297 113.227 542.328 111.047 542.891C108.867 543.453 107.812 546.406 108.586 549.43C109.43 552.523 111.891 554.492 114.07 553.93ZM133.828 551.891C131.789 551.398 129.539 552.945 128.836 555.406C128.062 557.867 129.188 560.188 131.227 560.68C133.266 561.172 135.516 559.625 136.219 557.164C136.992 554.703 135.867 552.383 133.828 551.891ZM122.859 553.93C125.039 554.492 127.5 552.523 128.344 549.43C129.117 546.406 128.062 543.453 125.883 542.891C123.703 542.328 121.242 544.297 120.398 547.391C119.625 550.414 120.68 553.367 122.859 553.93Z" fill="#EFE7EF"/>
<path d="M734.5 1026.25C728.875 1026.25 721 1034.9 721 1040.38C721 1042.84 722.828 1044.25 725.992 1044.25C729.438 1044.25 731.688 1042.49 734.5 1042.49C737.242 1042.49 739.492 1044.25 742.938 1044.25C746.102 1044.25 748 1042.84 748 1040.38C748 1034.9 740.055 1026.25 734.5 1026.25ZM724.094 1025.41C723.391 1022.95 721.141 1021.4 719.102 1021.89C717.062 1022.38 715.938 1024.7 716.711 1027.16C717.414 1029.62 719.664 1031.17 721.703 1030.68C723.742 1030.19 724.867 1027.87 724.094 1025.41ZM730.07 1023.93C732.25 1023.37 733.305 1020.41 732.531 1017.39C731.688 1014.3 729.227 1012.33 727.047 1012.89C724.867 1013.45 723.812 1016.41 724.586 1019.43C725.43 1022.52 727.891 1024.49 730.07 1023.93ZM749.828 1021.89C747.789 1021.4 745.539 1022.95 744.836 1025.41C744.062 1027.87 745.188 1030.19 747.227 1030.68C749.266 1031.17 751.516 1029.62 752.219 1027.16C752.992 1024.7 751.867 1022.38 749.828 1021.89ZM738.859 1023.93C741.039 1024.49 743.5 1022.52 744.344 1019.43C745.117 1016.41 744.062 1013.45 741.883 1012.89C739.703 1012.33 737.242 1014.3 736.398 1017.39C735.625 1020.41 736.68 1023.37 738.859 1023.93Z" fill="#EFE7EF"/>
<path d="M1204.5 1255.25C1198.88 1255.25 1191 1263.9 1191 1269.38C1191 1271.84 1192.83 1273.25 1195.99 1273.25C1199.44 1273.25 1201.69 1271.49 1204.5 1271.49C1207.24 1271.49 1209.49 1273.25 1212.94 1273.25C1216.1 1273.25 1218 1271.84 1218 1269.38C1218 1263.9 1210.05 1255.25 1204.5 1255.25ZM1194.09 1254.41C1193.39 1251.95 1191.14 1250.4 1189.1 1250.89C1187.06 1251.38 1185.94 1253.7 1186.71 1256.16C1187.41 1258.62 1189.66 1260.17 1191.7 1259.68C1193.74 1259.19 1194.87 1256.87 1194.09 1254.41ZM1200.07 1252.93C1202.25 1252.37 1203.3 1249.41 1202.53 1246.39C1201.69 1243.3 1199.23 1241.33 1197.05 1241.89C1194.87 1242.45 1193.81 1245.41 1194.59 1248.43C1195.43 1251.52 1197.89 1253.49 1200.07 1252.93ZM1219.83 1250.89C1217.79 1250.4 1215.54 1251.95 1214.84 1254.41C1214.06 1256.87 1215.19 1259.19 1217.23 1259.68C1219.27 1260.17 1221.52 1258.62 1222.22 1256.16C1222.99 1253.7 1221.87 1251.38 1219.83 1250.89ZM1208.86 1252.93C1211.04 1253.49 1213.5 1251.52 1214.34 1248.43C1215.12 1245.41 1214.06 1242.45 1211.88 1241.89C1209.7 1241.33 1207.24 1243.3 1206.4 1246.39C1205.62 1249.41 1206.68 1252.37 1208.86 1252.93Z" fill="#EFE7EF"/>
<path d="M497.5 1241.25C491.875 1241.25 484 1249.9 484 1255.38C484 1257.84 485.828 1259.25 488.992 1259.25C492.438 1259.25 494.688 1257.49 497.5 1257.49C500.242 1257.49 502.492 1259.25 505.938 1259.25C509.102 1259.25 511 1257.84 511 1255.38C511 1249.9 503.055 1241.25 497.5 1241.25ZM487.094 1240.41C486.391 1237.95 484.141 1236.4 482.102 1236.89C480.062 1237.38 478.938 1239.7 479.711 1242.16C480.414 1244.62 482.664 1246.17 484.703 1245.68C486.742 1245.19 487.867 1242.87 487.094 1240.41ZM493.07 1238.93C495.25 1238.37 496.305 1235.41 495.531 1232.39C494.688 1229.3 492.227 1227.33 490.047 1227.89C487.867 1228.45 486.812 1231.41 487.586 1234.43C488.43 1237.52 490.891 1239.49 493.07 1238.93ZM512.828 1236.89C510.789 1236.4 508.539 1237.95 507.836 1240.41C507.062 1242.87 508.188 1245.19 510.227 1245.68C512.266 1246.17 514.516 1244.62 515.219 1242.16C515.992 1239.7 514.867 1237.38 512.828 1236.89ZM501.859 1238.93C504.039 1239.49 506.5 1237.52 507.344 1234.43C508.117 1231.41 507.062 1228.45 504.883 1227.89C502.703 1227.33 500.242 1229.3 499.398 1232.39C498.625 1235.41 499.68 1238.37 501.859 1238.93Z" fill="#EFE7EF"/>
<path d="M978.5 839.25C972.875 839.25 965 847.898 965 853.383C965 855.844 966.828 857.25 969.992 857.25C973.438 857.25 975.688 855.492 978.5 855.492C981.242 855.492 983.492 857.25 986.938 857.25C990.102 857.25 992 855.844 992 853.383C992 847.898 984.055 839.25 978.5 839.25ZM968.094 838.406C967.391 835.945 965.141 834.398 963.102 834.891C961.062 835.383 959.938 837.703 960.711 840.164C961.414 842.625 963.664 844.172 965.703 843.68C967.742 843.188 968.867 840.867 968.094 838.406ZM974.07 836.93C976.25 836.367 977.305 833.414 976.531 830.391C975.688 827.297 973.227 825.328 971.047 825.891C968.867 826.453 967.812 829.406 968.586 832.43C969.43 835.523 971.891 837.492 974.07 836.93ZM993.828 834.891C991.789 834.398 989.539 835.945 988.836 838.406C988.062 840.867 989.188 843.188 991.227 843.68C993.266 844.172 995.516 842.625 996.219 840.164C996.992 837.703 995.867 835.383 993.828 834.891ZM982.859 836.93C985.039 837.492 987.5 835.523 988.344 832.43C989.117 829.406 988.062 826.453 985.883 825.891C983.703 825.328 981.242 827.297 980.398 830.391C979.625 833.414 980.68 836.367 982.859 836.93Z" fill="#EFE7EF"/>
<path d="M1240.5 687.25C1234.88 687.25 1227 695.898 1227 701.383C1227 703.844 1228.83 705.25 1231.99 705.25C1235.44 705.25 1237.69 703.492 1240.5 703.492C1243.24 703.492 1245.49 705.25 1248.94 705.25C1252.1 705.25 1254 703.844 1254 701.383C1254 695.898 1246.05 687.25 1240.5 687.25ZM1230.09 686.406C1229.39 683.945 1227.14 682.398 1225.1 682.891C1223.06 683.383 1221.94 685.703 1222.71 688.164C1223.41 690.625 1225.66 692.172 1227.7 691.68C1229.74 691.188 1230.87 688.867 1230.09 686.406ZM1236.07 684.93C1238.25 684.367 1239.3 681.414 1238.53 678.391C1237.69 675.297 1235.23 673.328 1233.05 673.891C1230.87 674.453 1229.81 677.406 1230.59 680.43C1231.43 683.523 1233.89 685.492 1236.07 684.93ZM1255.83 682.891C1253.79 682.398 1251.54 683.945 1250.84 686.406C1250.06 688.867 1251.19 691.188 1253.23 691.68C1255.27 692.172 1257.52 690.625 1258.22 688.164C1258.99 685.703 1257.87 683.383 1255.83 682.891ZM1244.86 684.93C1247.04 685.492 1249.5 683.523 1250.34 680.43C1251.12 677.406 1250.06 674.453 1247.88 673.891C1245.7 673.328 1243.24 675.297 1242.4 678.391C1241.62 681.414 1242.68 684.367 1244.86 684.93Z" fill="#EFE7EF"/>
<path d="M1193.5 334.25C1187.88 334.25 1180 342.898 1180 348.383C1180 350.844 1181.83 352.25 1184.99 352.25C1188.44 352.25 1190.69 350.492 1193.5 350.492C1196.24 350.492 1198.49 352.25 1201.94 352.25C1205.1 352.25 1207 350.844 1207 348.383C1207 342.898 1199.05 334.25 1193.5 334.25ZM1183.09 333.406C1182.39 330.945 1180.14 329.398 1178.1 329.891C1176.06 330.383 1174.94 332.703 1175.71 335.164C1176.41 337.625 1178.66 339.172 1180.7 338.68C1182.74 338.188 1183.87 335.867 1183.09 333.406ZM1189.07 331.93C1191.25 331.367 1192.3 328.414 1191.53 325.391C1190.69 322.297 1188.23 320.328 1186.05 320.891C1183.87 321.453 1182.81 324.406 1183.59 327.43C1184.43 330.523 1186.89 332.492 1189.07 331.93ZM1208.83 329.891C1206.79 329.398 1204.54 330.945 1203.84 333.406C1203.06 335.867 1204.19 338.188 1206.23 338.68C1208.27 339.172 1210.52 337.625 1211.22 335.164C1211.99 332.703 1210.87 330.383 1208.83 329.891ZM1197.86 331.93C1200.04 332.492 1202.5 330.523 1203.34 327.43C1204.12 324.406 1203.06 321.453 1200.88 320.891C1198.7 320.328 1196.24 322.297 1195.4 325.391C1194.62 328.414 1195.68 331.367 1197.86 331.93Z" fill="#EFE7EF"/>
<path d="M249.5 101.25C243.875 101.25 236 109.898 236 115.383C236 117.844 237.828 119.25 240.992 119.25C244.438 119.25 246.688 117.492 249.5 117.492C252.242 117.492 254.492 119.25 257.938 119.25C261.102 119.25 263 117.844 263 115.383C263 109.898 255.055 101.25 249.5 101.25ZM239.094 100.406C238.391 97.9453 236.141 96.3984 234.102 96.8906C232.062 97.3828 230.938 99.7031 231.711 102.164C232.414 104.625 234.664 106.172 236.703 105.68C238.742 105.188 239.867 102.867 239.094 100.406ZM245.07 98.9297C247.25 98.3672 248.305 95.4141 247.531 92.3906C246.688 89.2969 244.227 87.3281 242.047 87.8906C239.867 88.4531 238.812 91.4062 239.586 94.4297C240.43 97.5234 242.891 99.4922 245.07 98.9297ZM264.828 96.8906C262.789 96.3984 260.539 97.9453 259.836 100.406C259.062 102.867 260.188 105.188 262.227 105.68C264.266 106.172 266.516 104.625 267.219 102.164C267.992 99.7031 266.867 97.3828 264.828 96.8906ZM253.859 98.9297C256.039 99.4922 258.5 97.5234 259.344 94.4297C260.117 91.4062 259.062 88.4531 256.883 87.8906C254.703 87.3281 252.242 89.2969 251.398 92.3906C250.625 95.4141 251.68 98.3672 253.859 98.9297Z" fill="#EFE7EF"/>
<path d="M1001.5 506.25C995.875 506.25 988 514.898 988 520.383C988 522.844 989.828 524.25 992.992 524.25C996.438 524.25 998.688 522.492 1001.5 522.492C1004.24 522.492 1006.49 524.25 1009.94 524.25C1013.1 524.25 1015 522.844 1015 520.383C1015 514.898 1007.05 506.25 1001.5 506.25ZM991.094 505.406C990.391 502.945 988.141 501.398 986.102 501.891C984.062 502.383 982.938 504.703 983.711 507.164C984.414 509.625 986.664 511.172 988.703 510.68C990.742 510.188 991.867 507.867 991.094 505.406ZM997.07 503.93C999.25 503.367 1000.3 500.414 999.531 497.391C998.688 494.297 996.227 492.328 994.047 492.891C991.867 493.453 990.812 496.406 991.586 499.43C992.43 502.523 994.891 504.492 997.07 503.93ZM1016.83 501.891C1014.79 501.398 1012.54 502.945 1011.84 505.406C1011.06 507.867 1012.19 510.188 1014.23 510.68C1016.27 511.172 1018.52 509.625 1019.22 507.164C1019.99 504.703 1018.87 502.383 1016.83 501.891ZM1005.86 503.93C1008.04 504.492 1010.5 502.523 1011.34 499.43C1012.12 496.406 1011.06 493.453 1008.88 492.891C1006.7 492.328 1004.24 494.297 1003.4 497.391C1002.62 500.414 1003.68 503.367 1005.86 503.93Z" fill="#EFE7EF"/>
</svg>
